<svg xmlns="http://www.w3.org/2000/svg" xml:space="preserve" width="1500" height="1500" data-id="lg_hBMqbvI3zskDVrncTD" data-version="1" viewBox="0 0 1500 1500"><path fill="#fff" stroke="transparent" d="M0 0h1500v1500H0z"/><g data-padding="20"><g transform="translate(-595.455 -610.661)scale(1.75207)"><rect width="449.021" height="90.4" x="137.672" y="331.424" fill="none" rx="0" ry="0" transform="translate(455.99 399.98)"/><path fill="#272727" d="M631.323 744.274q3.76.08 9.2 1.44t5.44 2.36-.88 2.56-1.28 1.72q-.72 0-4.56-1.04-5.2-.8-6.72-.8-7.28 0-11.36 1.6-3.12 1.12-5.88 3.32t-4.44 4.32-3 5.52-1.4 7.32q0 9.12 6.32 15.72t18.64 7.08q4 0 11.76-1.52 2.88-.96 3.36-.96.64.24 1.08 1.16t.44 1.8q0 1.92-5.72 4.04t-12.36 2.28q-9.12-.16-17.44-4.48-9.28-4.72-12.96-12.96-2-4.64-2-10 0-13.04 9.68-21.76t24.08-8.72m22 48.48.56-17.76q.08-.64.08-2.24t.12-2.4.36-1.92q.48-2 2.32-2 4 0 4 1.76 0 1.36.08 1.92.48 0 4.64-2.16t7.12-2.16q1.2 0 1.64.6t.44 2.76-.56 3.28q-.48.08-1.72.24t-1.84.24-1.72.28-1.76.32-1.56.32-1.52.44-1.24.48q-1.28.48-1.76 1.28v5.2l.16 13.6v2.52q0 1-.04 1.64t-.36 1.28q-.64 1.04-3.32 1.04t-3.16-.32q-.96-.64-.96-8.24m59.6-9.6q0 8.24-5.64 13.64t-13.52 5.4-13.04-4.96-5.16-13.4 5.48-13.28 15.08-4.84q5.36 0 10.64 3.36 2.72 1.84 4.44 5.48t1.72 8.6m-18.08 13.12q5.04 0 8.12-3.64t3.08-9-2.68-8.88-7.84-3.52-8.64 3.2-3.48 9.12 3.2 9.32 8.24 3.4m48.4-8.08q-2.4 2.56-3.2 3.84-6.8 10.24-8.4 10.24-.4 0-1.6-1.28t-1.8-2.4-6.2-12.52-6.88-14.16-1.28-3.6 2.12-1.72 2.68-.88h.64q1.12.08 3.68 6.16 2.4 5.12 6.12 13.16t3.64 8.04l1.92-2.4q5.84-7.28 5.92-7.6-1.2-3.04-1.68-3.92t-1.52-3.32-1.92-4.16-.88-2.28.72-1.04 1.48-.84 1.76-.8 1.24-.48.72.44.96 1.24.88 1.48q2 3.6 5 10.2t3.72 8.12q1.36 3.44 2 4.08.64 0 2.72-4.2t3.24-6.64 2.52-5.44 1.84-3.96q1.04-3.2 2.72-4.96.56-.64 1.16-.76t1.68.36 1.24.88q0 1.44-1.6 5.44-4.64 10.24-6.96 14.4t-3.24 5.92-1.72 3.16-1.68 2.92q-2 3.28-3.28 3.28-.64 0-4.08-6.2t-4.4-7.8m63.52-41.44v2.08l.08 31.92v16.24q0 .72-.04.96t-.08.8-.12.8q-.32.96-.52 1.12t-.44.32q-.56.32-2.64.32t-2.8-.24q-.16-.4-.24-1.44t-.16-1.36q-1.68 1.2-5.4 2.56t-6.68 1.36q-7.44 0-12.04-5.04t-4.6-12.48q0-10.32 8.96-15.92 4.4-3.04 11.2-3.04 1.84 0 8.16 1.68l.08-3.52v-4.24q0-8.96.12-10.48t.12-2.96.08-1.88.4-1.08q.56-.96 2.56-.96t2.68.32 1 1.2q.32 1.2.32 2.96m-27.76 36.16q0 6.48 3.36 10.12t9.12 3.64q2.88 0 4.8-.56 3.28-1.04 3.28-2.88v-14.8q0-5.28-.48-5.84-.48-.8-2.92-1.24t-4.84-.44q-5.44 0-8.8 3.36t-3.52 8.64m94.08 16.48q-.32.16-.84.32t-.96.32l-.88.32q-.44.16-.68.28t-.16.32 1.52 1.04 3.32 1.56 8.64 2.92 9.88 2.76 3.12 1.36q0 .96-1.04 2.84t-1.52 1.88q-.4-.08-1.48-.32t-2.8-.52-8-2.2-8.56-2.84-6.12-2.84q-8.24-4.16-12.96-5.04-9.92-2-16.52-9.44t-6.68-18.16q0-4.48 1.68-9.56t4.04-8.24 5.64-5.88 8.4-4.36 11.36-1.64q12 0 20.2 7.48t8.2 20.84q0 9.2-4.56 16.24t-12.24 10.56m-10.72-48.8q-10.16 0-16.64 6t-6.48 16.16 5.8 16.48 15.6 6.32 15.92-6.44 6.12-16.2-6.04-16.04-14.28-6.28m58.48 41.6.4-14.56v-4.16q0-3.36.52-5.08t2.2-1.72q2.8 0 4 .4.48.64.48 4.24l.24 20.24.32 7.04q0 2.56-.64 2.64-1.68.24-3.08.24t-1.92-.28-.68-.8-.24-1.08l-.16-1.12q-.08-1.28-.4-1.12-.96-.08-3.84 2.4-1.12 1.04-3.52 1.88t-5.84.84-6.12-1.68-3.96-4.56q-2.24-5.28-2.24-11.84l.16-12.72.08-1.44q0-1.76.72-2.52t2.96-.76 2.84.36.6 1.8l-.16 11.68q0 9.2 1.92 12.24.88 1.36 2.6 2.32t4.12.96 5.52-.96 3.12-2.88m44.4-10.72-18.32.08q-2.96 0-3.44.48-.4.56-.4 1.84 0 6.24 3.56 9.56t8.12 3.32 7.12-1.2q.08 0 1.6-1.04t2.12-1.04.92.48.32.96q0 3.04-4.48 5.16t-10.44 2.12-11.36-4.8-5.4-12.96 5.08-13.44 13.64-5.28q6.24 0 10.08 3.68 4.08 3.84 4.08 9.28 0 2.8-2.8 2.8m-20.8-3.92q15.2 0 17.6-.16-.24-3.2-2.44-5.28t-5.56-2.08-6.28 2.36-3.32 5.16m26.88 19.76 2.88.32q3.2 0 5.76-1.4t2.56-4.04q0-.96-.36-2.04t-2.56-3.12-4.04-4.68-1.84-5.92q0-3.2 2.88-6.72 1.36-1.68 4.08-2.84t5.32-1.16 3.2.6.44 1.72l-.64 2.32q-1.2-.32-2.76-.32t-3.24 1.24-1.68 3.16 1.44 3.88 3.2 3.4 3.2 3.92 1.44 5.36q0 5.52-4.88 8.36t-11.6 2.84q-1.76 0-2.56-.68t-.8-2.16.56-2.04m35.76-19.2-.16 11.52q0 3.28 1.12 5t3.76 1.72 4.48-.48q3.44-.96 3.44.96 0 5.36-9.92 5.36-5.6 0-8.72-5.04-1.52-3.2-1.52-7.6l.16-9.28.16-6.72q0-1.12-.32-1.4t-1.2-.28l-3.12.24q-2 0-2-1.28 0-2.24.52-3.16t1.96-.92l3.12.24q1.12 0 1.12-2.72v-4.96q0-2.08.08-2.4.96-.48 6.32-.48 1.44 0 1.44 1.52l-.24 8.8q.96.08 3.12.08l6.4-.48q1.28 0 1.28 1.52 0 4.4-4.32 4.4l-5.2-.32q-1.28 0-1.6.16-.16 1.44-.16 6"/><path fill="#3d9970" d="M514.103 759.422a43.58 21.08-44.8 1 0 29.707 29.915 43.58 21.08-44.8 1 0-29.708-29.915"/><path fill="#ffdc00" d="M507.873 776.434a21.76 44.986 0 1 0 43.52 0 21.76 44.986 0 1 0-43.52 0"/><path fill="#0074d9" d="M513.443 792.034a22.118 45.726-45 1 0 31.28-31.28 22.118 45.726-45 1 0-31.28 31.28"/></g><path fill="transparent" stroke="transparent" stroke-width="1.818" d="M250 668.182h1000v163.636H250z"/></g></svg>